<svg width="24" height="23" viewBox="0 0 24 23" fill="none" xmlns="http://www.w3.org/2000/svg">
<g clip-path="url(#clip0_1374_1092)">
<path d="M5.76999 19.21C4.03999 18.29 2.56999 17.07 1.69999 15.45C0.639986 13.46 0.489986 11.7 0.909986 10.28C1.32999 8.86001 2.32999 7.76001 3.57999 7.09001C5.89999 5.86001 9.07999 6.10001 11.1 8.46001L11.27 8.37001C10.44 5.37001 12.01 2.60001 14.33 1.36001C15.58 0.690012 17.05 0.480012 18.47 0.920012C19.88 1.36001 21.26 2.47001 22.32 4.46001C23.19 6.08001 23.38 7.99001 23.17 9.94001C22.96 11.89 22.36 13.87 21.65 15.66C20.94 17.44 20.11 19.02 19.47 20.15C19.15 20.72 18.87 21.17 18.67 21.48C18.57 21.64 18.49 21.76 18.44 21.84C18.42 21.87 18.4 21.9 18.39 21.92C18.37 21.92 18.33 21.92 18.29 21.92C18.19 21.92 18.05 21.92 17.86 21.92C17.49 21.91 16.96 21.89 16.31 21.84C15.01 21.74 13.24 21.55 11.36 21.14C9.47999 20.74 7.49999 20.13 5.76999 19.21ZM0.339986 10.12C-0.160014 11.82 0.129986 13.77 1.17999 15.73C2.02999 17.32 3.47999 18.67 5.48999 19.73C7.06999 20.57 9.00999 21.23 11.24 21.71C13.13 22.11 14.92 22.32 16.24 22.41C16.9 22.46 17.45 22.48 17.83 22.5C18.02 22.5 18.17 22.5 18.27 22.51C18.32 22.51 18.36 22.51 18.39 22.51H18.42H18.63H18.68L18.71 22.47L18.83 22.29L18.85 22.26C18.87 22.24 18.89 22.2 18.92 22.16C18.98 22.07 19.06 21.95 19.16 21.78C19.36 21.46 19.65 20.99 19.98 20.41C20.64 19.26 21.47 17.66 22.19 15.86C23.04 13.74 23.56 11.77 23.75 9.99001C23.99 7.73001 23.69 5.78001 22.84 4.18001C21.79 2.22001 20.35 0.890012 18.65 0.360012C17.15 -0.109988 15.51 0.0600118 14.05 0.840012C12.76 1.53001 11.7 2.63001 11.08 3.96001C10.61 4.94001 10.4 5.99001 10.45 7.05001C9.59999 6.42001 8.60999 6.01001 7.53999 5.85001C6.08999 5.63001 4.57999 5.89001 3.28999 6.58001C1.81999 7.36001 0.769986 8.62001 0.319986 10.13L0.339986 10.12Z" fill="#D45D56"/>
<path d="M18.34 22.65V22.61H18.27C18.17 22.61 18.02 22.61 17.82 22.6C17.48 22.6 16.92 22.57 16.23 22.51C15.02 22.42 13.17 22.22 11.21 21.8C8.95998 21.32 7.01998 20.65 5.43998 19.81C3.40998 18.73 1.93998 17.37 1.08998 15.77C0.0299752 13.78 -0.270025 11.82 0.239975 10.09C0.689975 8.56 1.75998 7.28 3.24998 6.48C4.55998 5.78 6.08998 5.52 7.55998 5.74C8.57998 5.89 9.51998 6.26 10.35 6.84C10.33 5.83 10.55 4.85 10.99 3.91C11.62 2.57 12.7 1.45 14.01 0.750001C15.5 -0.039999 17.16 -0.219999 18.69 0.260001C20.41 0.800001 21.88 2.14 22.94 4.13C23.8 5.74 24.11 7.71 23.87 10C23.68 11.8 23.15 13.78 22.3 15.9C21.55 17.76 20.68 19.41 20.09 20.46C19.74 21.07 19.45 21.54 19.27 21.83C19.17 21.99 19.09 22.12 19.03 22.21L18.76 22.61H18.46L18.34 22.65ZM0.439975 10.15C-0.0600249 11.82 0.229975 13.74 1.26998 15.68C2.10998 17.25 3.53998 18.58 5.53998 19.64C7.10998 20.47 9.02998 21.13 11.26 21.61C13.21 22.03 15.05 22.22 16.25 22.31C16.94 22.36 17.49 22.39 17.83 22.4C18.02 22.4 18.17 22.4 18.27 22.41H18.43H18.64L18.85 22.1C18.91 22.01 18.99 21.89 19.09 21.73C19.27 21.44 19.56 20.98 19.9 20.37C20.5 19.32 21.36 17.69 22.1 15.84C22.94 13.74 23.47 11.77 23.66 9.99C23.9 7.75 23.59 5.81 22.76 4.24C21.72 2.29 20.29 0.990001 18.63 0.460001C17.16 1.01328e-06 15.55 0.170001 14.11 0.940001C12.84 1.62 11.8 2.71 11.18 4.01C10.72 4.98 10.51 6 10.56 7.05V7.26L10.4 7.13C9.55997 6.5 8.58998 6.1 7.52998 5.95C6.09998 5.74 4.61998 5.99 3.33998 6.67C1.89998 7.44 0.859975 8.68 0.419975 10.16L0.439975 10.15ZM18.39 22.03H18.29C18.19 22.03 18.05 22.03 17.86 22.03C17.53 22.03 16.99 22 16.3 21.95C15.11 21.86 13.28 21.67 11.34 21.25C9.14998 20.78 7.25997 20.13 5.71997 19.32C3.78998 18.3 2.40998 17.02 1.60998 15.52C0.619975 13.66 0.349975 11.85 0.809975 10.27C1.21998 8.89 2.17998 7.74 3.52998 7.02C5.64998 5.89 8.91998 5.83 11.12 8.35L11.15 8.33C10.29 5.1 12.16 2.42 14.28 1.29C15.63 0.570001 17.12 0.410001 18.49 0.850001C20.06 1.34 21.41 2.58 22.4 4.44C23.2 5.94 23.49 7.81 23.26 9.97C23.08 11.7 22.56 13.63 21.73 15.71C20.99 17.55 20.13 19.18 19.54 20.22C19.21 20.81 18.92 21.27 18.74 21.56C18.64 21.72 18.56 21.84 18.51 21.92L18.43 22.04H18.37L18.39 22.03ZM6.55998 6.46C5.48998 6.46 4.46998 6.73 3.62998 7.18C2.32998 7.87 1.39998 8.98 1.00998 10.31C0.559975 11.83 0.829975 13.6 1.78998 15.41C2.56998 16.88 3.92998 18.13 5.81998 19.13C7.34998 19.94 9.21998 20.58 11.39 21.05C13.32 21.47 15.14 21.66 16.33 21.75C17.01 21.8 17.55 21.82 17.88 21.83C18.06 21.83 18.21 21.83 18.3 21.83H18.34L18.36 21.79C18.41 21.71 18.49 21.59 18.59 21.43C18.77 21.15 19.05 20.68 19.39 20.1C19.98 19.07 20.83 17.45 21.57 15.62C22.4 13.56 22.91 11.64 23.09 9.93C23.32 7.8 23.03 5.98 22.25 4.51C21.29 2.7 19.98 1.49 18.46 1.02C17.14 0.610001 15.7 0.760001 14.4 1.45C12.33 2.55 10.5 5.18 11.39 8.34L11.41 8.42L11.1 8.59L11.05 8.53C9.77998 7.05 8.13998 6.46 6.58998 6.46H6.55998Z" fill="#D45D56"/>
</g>
<defs>
<clipPath id="clip0_1374_1092">
<rect width="23.95" height="22.65" fill="white"/>
</clipPath>
</defs>
</svg>
