<svg width="26" height="26" viewBox="0 0 26 26" fill="none" xmlns="http://www.w3.org/2000/svg">
<g clip-path="url(#clip0_1374_1083)">
<path d="M13 26C5.83 26 0 20.17 0 13C0 5.83 5.83 0 13 0C20.17 0 26 5.83 26 13C26 20.17 20.17 26 13 26ZM13 1C6.38 1 1 6.38 1 13C1 19.62 6.38 25 13 25C19.62 25 25 19.62 25 13C25 6.38 19.62 1 13 1Z" fill="#F3AC2F"/>
<path d="M17.57 17.49C16.72 18.79 14.95 19.68 12.91 19.69C10.54 19.69 8.76 18.72 7.81 17C7.75 16.89 7.77 17.64 7.77 17.76C7.77 18.15 9.23 20.98 12.91 20.86C15.18 20.78 17.1 19.72 17.82 18.21" fill="#F3AC2F"/>
<path d="M9.24 12.17C9.97 11.36 9.91 10.11 9.1 9.36998C8.29 8.63998 7.04 8.69998 6.3 9.50998C5.57 10.32 5.63 11.57 6.44 12.31C7.25 13.04 8.5 12.98 9.24 12.17Z" fill="#F3AC2F"/>
<path d="M19.87 11.16C20.04 10.08 19.3 9.06998 18.22 8.89998C17.14 8.72998 16.13 9.46998 15.96 10.55C15.79 11.63 16.53 12.64 17.61 12.81C18.69 12.98 19.7 12.24 19.87 11.16Z" fill="#F3AC2F"/>
</g>
<defs>
<clipPath id="clip0_1374_1083">
<rect width="26" height="26" fill="white"/>
</clipPath>
</defs>
</svg>
